<svg width="1046" height="95" viewBox="0 0 1046 95" fill="none" xmlns="http://www.w3.org/2000/svg">
<g clip-path="url(#clip0_11_2)">
<g clip-path="url(#clip1_11_2)">
<g clip-path="url(#clip2_11_2)">
<path fill-rule="evenodd" clip-rule="evenodd" d="M65.8309 80.3846C65.3431 78.0649 63.4514 77.4476 61.3308 77.2485C54.4711 76.6113 53.2565 81.7586 53.2565 83.919C53.2565 87.6326 54.3317 90.699 61.0719 90.699C62.3065 90.699 65.7413 89.4247 65.7413 87.3439H75.4185C75.0302 93.5166 64.666 95 60.156 95C50.7974 95 42.7828 93.2478 43.1711 84.0484C43.4498 77.4476 49.6723 72.8181 62.0874 73.0968C68.9869 73.2561 75.6077 75.4166 75.6375 80.4145L65.8309 80.3846V80.3846Z" fill="#02033B"/>
<path fill-rule="evenodd" clip-rule="evenodd" d="M162.822 80.3846C162.344 78.0649 160.453 77.4476 158.332 77.2485C151.472 76.6113 150.258 81.7586 150.258 83.919C150.258 87.6326 151.333 90.699 158.073 90.699C159.308 90.699 162.732 89.4247 162.732 87.3439H172.43C172.031 93.5166 161.677 95 157.157 95C147.799 95 139.784 93.2478 140.172 84.0484C140.451 77.4476 146.673 72.8181 159.089 73.0968C165.988 73.2561 172.609 75.4166 172.639 80.4145L162.822 80.3846V80.3846Z" fill="#02033B"/>
<path fill-rule="evenodd" clip-rule="evenodd" d="M77.3101 73.515H89.8845L100.617 88.6083H100.697V73.515H108.761V94.4226H96.7143L85.4641 79.3691H85.3745V94.4425H77.3101V73.515V73.515Z" fill="#02033B"/>
<path fill-rule="evenodd" clip-rule="evenodd" d="M111.25 73.515H126.513C133.86 73.515 138.171 75.5659 138.171 78.6722C138.171 80.5041 136.369 82.7741 132.337 83.4411V83.5008C137.185 83.7796 138.977 86.856 138.977 88.6979C138.977 92.3915 134.766 94.4425 126.562 94.4425H111.25V73.515V73.515ZM120.081 81.6391H122.62C126.523 81.6391 128.593 81.3304 128.593 79.7076C128.593 78.0848 126.871 77.3879 123.366 77.3879H120.091V81.6391H120.081ZM120.081 90.0519H122.62C127.319 90.0519 129.041 89.5541 129.041 87.9313C129.041 86.3084 126.871 85.6215 123.357 85.6215H120.091V90.0519H120.081Z" fill="#02033B"/>
<path fill-rule="evenodd" clip-rule="evenodd" d="M151.323 41.4269L115.332 65.5004L127.458 36.6779L133.203 23.2671C135.453 18.9662 139.864 16.2183 144.712 16.0889C149.272 16.059 153.523 18.3887 155.942 22.2516C158.591 26.234 158.74 32.6855 156.092 36.6878C154.847 38.5794 153.225 40.1923 151.333 41.4368" fill="#02033B"/>
<path fill-rule="evenodd" clip-rule="evenodd" d="M133.402 18.6973L115.601 60.7813L114.844 56.1916L109.458 21.6941C109.199 19.7029 110.105 17.7416 111.788 16.6364L114.336 15.1132C114.486 14.5855 113.739 14.4063 113.391 14.2371L108.413 14.1873C107.766 7.02892 113.042 0.706871 120.201 0.0497758C122.301 -0.139388 124.422 0.179204 126.363 0.995594C131.192 3.12618 134.348 7.85527 134.467 13.1319C134.467 15.0335 134.109 16.9252 133.402 18.6874" fill="#02033B"/>
<path fill-rule="evenodd" clip-rule="evenodd" d="M99.2133 60.9306L81.6908 18.7471C79.7892 14.0081 80.6056 8.61192 83.8213 4.64944C87.0869 0.816388 92.264 -0.796482 97.1325 0.48784C101.653 1.82194 105.157 5.4061 106.382 9.95598C106.79 11.7082 106.899 13.5103 106.7 15.3023L99.2133 60.9306Z" fill="#02033B"/>
<path fill-rule="evenodd" clip-rule="evenodd" d="M61.7589 39.9036C58.2345 36.9367 56.4723 32.3669 57.0995 27.8071C57.7865 22.7295 61.2412 18.4484 66.0599 16.6962C70.7193 15.1829 75.8367 16.4274 79.2814 19.912C80.6056 21.2461 81.6509 22.839 82.3578 24.5813L99.283 65.5701L61.7589 39.9036Z" fill="#02033B"/>
<path fill-rule="evenodd" clip-rule="evenodd" d="M57.9059 69.8512C53.366 69.4131 49.3836 66.6255 47.4123 62.5037C45.212 57.8343 45.7298 52.3386 48.7663 48.1571C52.0319 44.2444 56.7311 42.2731 61.5199 43.2488C63.3419 43.5873 65.0842 44.3141 66.6174 45.3595L103.056 69.8512H57.9059Z" fill="#02033B"/>
<path fill-rule="evenodd" clip-rule="evenodd" d="M156.839 69.8512C161.388 69.4231 165.381 66.6255 167.332 62.4937C169.532 57.8244 169.015 52.3287 165.988 48.1571C162.723 44.2444 158.023 42.2731 153.225 43.2488C151.403 43.5973 149.66 44.3141 148.127 45.3595L111.688 69.8512H156.839Z" fill="#02033B"/>
</g>
</g>
<g clip-path="url(#clip3_11_2)">
<g clip-path="url(#clip4_11_2)">
<path fill-rule="evenodd" clip-rule="evenodd" d="M328.645 38.69C328.965 38.53 329.265 38.34 329.545 38.13H338.875C338.655 39.24 338.375 40.35 338.045 41.44C337.045 42.44 335.915 43.37 334.815 44.3C333.965 47.55 333.035 50.73 332.215 54.01C330.835 55.01 329.555 56.01 328.215 57.01C326.815 56.93 325.495 57.01 323.995 57.01C324.075 56.27 324.395 55.46 324.485 54.6C324.055 54.8 323.635 55.04 323.245 55.32C322.855 55.57 322.465 55.8 322.045 56.03C320.445 56.97 318.585 57.35 316.745 57.09C315.465 56.9 314.315 56.21 313.545 55.17C311.775 56.54 308.295 57.8 305.415 56.9C303.575 56.32 302.585 54.62 303.005 52.2C302.315 52.31 301.625 52.37 300.935 52.39C300.705 52.94 300.505 53.51 300.335 54.08C299.335 54.79 298.335 55.62 297.335 56.42C297.035 56.71 296.695 56.96 296.335 57.17C295.595 57.24 294.855 57.24 294.115 57.17C293.375 57.23 292.635 57.23 291.895 57.17C293.095 52.69 294.315 47.69 295.645 43.03C295.755 42.37 295.935 41.73 296.175 41.11C296.425 40.81 296.715 40.54 297.035 40.32C297.955 39.56 298.925 38.92 299.785 38.13H303.785C305.125 38.13 306.525 38 307.695 38.13C308.125 38.22 308.525 38.38 308.895 38.62C309.145 38.98 309.405 39.35 309.645 39.71C310.535 39.14 311.465 38.64 312.435 38.21C313.605 37.86 314.815 37.71 316.035 37.79C317.595 37.85 319.035 38.46 319.575 39.71C320.815 38.6 322.365 37.9 324.015 37.71C325.615 37.51 327.245 37.84 328.645 38.65M328.115 39.07C327.145 38.48 326.015 38.2 324.875 38.25C324.225 38.29 323.575 38.42 322.955 38.63C321.755 38.87 320.695 39.54 319.955 40.51C319.365 41.49 319.155 42.65 319.355 43.78C319.725 44.62 320.235 45.38 320.875 46.04C321.445 46.8 322.135 47.46 322.605 48.11C322.795 48.35 322.945 48.61 323.055 48.9C323.365 49.63 323.025 50.47 322.305 50.78C322.115 50.86 321.915 50.9 321.715 50.89C321.605 50.89 321.575 50.79 321.525 50.78C321.475 50.77 321.385 50.78 321.295 50.78C320.395 50.36 320.765 49.47 320.925 48.52H317.535C317.205 49.37 317.015 50.28 316.975 51.19C317.075 53.03 318.845 53.82 320.695 53.83C322.035 53.89 323.355 53.54 324.495 52.83C325.055 52.53 325.565 52.13 325.995 51.66C326.775 50.63 327.155 49.34 327.055 48.05C326.815 46.86 326.165 45.8 325.215 45.05C324.525 44.47 323.895 43.81 323.335 43.1C323.055 42.63 322.975 42.08 323.115 41.55C323.395 41.13 323.895 40.91 324.395 40.99C325.555 41.18 325.185 42.75 324.995 43.55C325.995 43.63 327.225 43.55 328.155 43.55C328.645 42.25 329.265 40.04 328.155 39.03M311.295 39.33C310.945 39.55 310.635 39.81 310.365 40.12C310.135 40.32 309.935 40.55 309.765 40.8C309.615 41.2 309.505 41.62 309.425 42.04C308.705 44.54 308.005 47.04 307.355 49.45C307.215 49.87 307.105 50.3 307.015 50.73C306.795 52.09 307.675 53.38 309.015 53.67C311.405 54.25 314.175 53.62 315.455 52.23C315.835 51.82 316.155 51.35 316.385 50.84C316.655 50.19 316.815 49.31 317.065 48.47C317.545 46.9 318.065 45.26 318.425 43.69C318.675 42.88 318.875 42.05 319.025 41.21C319.135 40.58 319.025 39.93 318.725 39.37C318.225 38.9 317.615 38.58 316.955 38.43C316.095 38.26 315.225 38.22 314.355 38.31C313.265 38.43 312.215 38.77 311.265 39.31M330.005 38.71C329.755 39.48 329.565 40.28 329.435 41.08H331.585C330.585 45.15 329.415 49.02 328.425 53.08C329.495 53.14 330.555 53.14 331.625 53.08C332.775 49.08 333.775 45.17 334.895 41.15C335.695 41.21 336.505 41.21 337.305 41.15C337.505 40.34 337.805 39.42 337.945 38.67C334.945 38.67 332.535 38.62 330.005 38.67M306.735 47.67C307.205 47.11 307.545 46.46 307.735 45.75C308.175 44.65 308.505 43.52 308.735 42.36C308.895 41.82 309.005 41.26 309.045 40.69C309.135 39.83 308.595 39.03 307.765 38.78C307.155 38.74 306.535 38.74 305.925 38.78H300.355C299.055 43.6 297.715 48.37 296.515 53.19C297.605 53.25 298.695 53.25 299.785 53.19C300.215 51.72 300.605 50.19 301.065 48.79C303.415 48.94 305.415 48.96 306.745 47.74" fill="#02033B"/>
<path fill-rule="evenodd" clip-rule="evenodd" d="M262.305 38.25H262.455V38.47H262.305C262.255 38.39 262.255 38.29 262.305 38.21" fill="#02033B"/>
<path fill-rule="evenodd" clip-rule="evenodd" d="M310.765 50.78C310.765 50.65 310.705 50.53 310.615 50.44C310.705 49.5 310.905 48.58 311.215 47.69C311.615 46.26 311.995 44.89 312.415 43.33C312.525 42.61 312.815 41.92 313.245 41.33C313.835 40.88 315.245 40.83 315.355 41.75C315.325 42.11 315.255 42.46 315.125 42.8C314.725 44.51 314.285 46.19 313.815 47.88C313.625 48.56 313.515 49.26 313.285 49.88C313.195 50.12 313.085 50.35 312.945 50.56C312.335 51.1 311.455 51.17 310.765 50.75" fill="#02033B"/>
<path fill-rule="evenodd" clip-rule="evenodd" d="M266.445 50.55C265.895 50.98 265.155 51.07 264.525 50.77C264.045 50.18 264.645 48.86 264.865 48.1C265.405 46.23 265.865 44.52 266.335 42.68C266.405 42.32 266.505 41.97 266.635 41.63C266.955 41.05 268.705 40.72 268.855 41.63C268.835 42.04 268.765 42.44 268.635 42.83C268.405 43.92 267.985 45.14 267.725 46.18C267.405 47.66 266.985 49.13 266.455 50.55" fill="#02033B"/>
<path fill-rule="evenodd" clip-rule="evenodd" d="M301.815 46.11C302.235 44.51 302.675 42.92 303.125 41.33C303.875 41.14 305.185 41.08 305.315 41.82C305.325 42.09 305.305 42.35 305.235 42.61C305.015 43.73 304.655 44.82 304.145 45.85C303.465 46.32 302.585 46.42 301.815 46.11Z" fill="#02033B"/>
<path fill-rule="evenodd" clip-rule="evenodd" d="M276.375 44.79C276.675 43.6 277.035 42.44 277.465 41.29C278.385 41.43 279.755 40.86 279.535 42.35C279.435 43.02 279.005 43.86 278.855 44.45C278.455 44.97 277.095 44.84 276.375 44.79" fill="#02033B"/>
<path fill-rule="evenodd" clip-rule="evenodd" d="M296.135 38.13H291.135C290.835 38.4 290.495 38.67 290.135 38.92C289.845 39.2 289.505 39.43 289.135 39.6C289.245 39.11 289.335 38.62 289.395 38.13H284.465C284.195 38.41 283.895 38.65 283.565 38.85C283.235 38.58 282.865 38.37 282.475 38.21C281.815 38.13 281.135 38.13 280.475 38.21H273.855C273.515 38.51 273.165 38.78 272.795 39.04C271.265 37.48 267.525 37.44 265.315 38.29C265.145 38.29 265.315 38.06 265.055 38.14H260.195C259.435 38.69 258.875 39.32 258.015 39.79C257.945 39.39 258.015 38.6 257.905 38.13H252.905C252.605 38.41 252.275 38.64 251.905 38.81C251.905 38.52 252.055 38.39 252.085 38.13H247.665C247.115 38.59 246.515 38.99 245.875 39.33C245.855 38.93 245.825 38.53 245.765 38.13H243.565C242.845 38.05 242.105 38.05 241.385 38.13C240.875 38.28 240.545 39.01 239.995 39.07C239.935 38.75 239.895 38.42 239.875 38.09C235.535 38.11 229.325 37.92 224.675 38.13C224.225 38.08 223.775 38.05 223.325 38.06C222.845 38.16 222.265 39.06 221.775 39.06C221.695 38.73 221.655 38.36 221.555 38.06H216.875C215.815 38.8 214.875 39.69 213.875 40.46C213.495 40.78 213.075 40.94 212.875 41.29C212.745 41.75 212.655 42.22 212.595 42.69C212.295 43.77 212.065 44.69 211.805 45.69C210.875 49.49 209.675 53.49 208.875 57.14H213.055C213.745 56.56 214.465 56.03 215.235 55.55C215.375 56.04 215.355 56.55 215.495 57.14H218.495C218.825 57.17 219.165 57.17 219.495 57.14C219.825 57.06 219.955 56.64 220.245 56.57C220.455 56.69 220.525 56.95 220.665 57.14C222.855 56.99 225.405 57.19 227.095 57.14C227.665 57.19 228.225 57.19 228.795 57.14C229.105 56.98 229.395 56.77 229.655 56.54C229.915 56.29 230.215 56.1 230.555 55.97C230.555 56.42 230.415 56.82 230.445 57.14H233.795C233.985 57.14 234.165 57.14 234.355 57.14C234.835 57.08 235.355 56.53 235.745 56.27C236.095 55.93 236.525 55.67 236.995 55.52C236.905 56.07 236.735 56.52 236.655 57.1H238.605C239.315 57.18 240.045 57.18 240.755 57.1C241.075 57.03 241.485 56.57 241.805 56.3C242.875 55.49 244.075 54.69 244.985 53.93C246.355 50.93 247.845 47.85 249.245 44.93C249.445 44.51 249.525 43.99 249.915 43.69C250.165 45.4 250.385 47.11 250.555 48.69C250.675 49.24 250.735 49.79 250.745 50.35C250.635 50.91 250.485 51.46 250.295 52L248.935 57.05H253.525C254.575 56.33 255.465 55.47 256.525 54.79C257.205 56.22 258.625 57.15 260.215 57.2C261.755 57.31 263.295 56.98 264.655 56.26C265.215 55.91 265.815 55.61 266.425 55.36C266.375 55.96 266.225 56.46 266.165 57.05H270.455C270.965 56.66 271.505 56.31 272.065 56C272.065 56.44 271.895 56.62 271.885 57C273.965 57.06 276.375 57 278.655 57C279.445 57.08 280.235 57.08 281.025 57C281.395 56.83 281.725 56.6 282.025 56.32C282.385 56.07 282.635 55.72 283.025 55.65C283.235 56.08 283.405 56.53 283.515 57H288.515C289.855 55.95 291.125 54.82 292.515 53.8C291.845 50.95 291.205 48.08 290.595 45.18C292.395 43.11 294.175 40.74 295.875 38.58C295.955 38.48 296.185 38.3 296.095 38.13M219.705 53.22C219.305 50.49 219.125 47.77 218.705 45.09C217.875 47.69 217.215 50.61 216.325 53.22C215.425 53.22 214.415 53.27 213.575 53.22C214.725 48.32 216.035 43.63 217.225 38.81C217.245 38.75 217.285 38.71 217.345 38.69H221.065C221.365 41 221.585 43.39 221.935 45.69C222.705 43.42 223.265 40.95 224.045 38.69C224.985 38.65 225.935 38.68 226.875 38.77C225.555 43.69 224.295 48.4 222.875 53.22H219.705V53.22ZM244.395 53.22C243.355 53.28 242.315 53.28 241.275 53.22C241.455 50.45 241.765 47.86 241.985 45.06C241.585 45.69 241.245 46.36 240.985 47.06C239.985 49.06 239.115 51.21 238.165 53.27H234.965C235.045 49.27 235.435 45.17 235.605 41.27H231.315C230.865 42.27 230.615 43.51 230.225 44.58C231.345 44.64 232.845 44.58 234.135 44.58C234.025 45.35 233.675 46.19 233.495 47.03H229.625C229.205 48.19 228.935 49.51 228.575 50.72C229.975 50.72 231.485 50.67 232.825 50.72C232.565 51.55 232.275 52.35 231.995 53.16H224.545C225.735 48.26 227.035 43.47 228.315 38.67C231.815 38.61 235.615 38.62 239.315 38.67C239.155 41.03 238.945 43.45 238.715 45.74C238.995 45.56 239.075 45.2 239.205 44.92C240.205 42.92 241.135 40.73 242.105 38.67H245.305C245.185 41.12 244.855 43.48 244.735 45.86C246.005 43.69 247.075 41.13 248.275 38.74C249.135 38.74 250.165 38.69 251.205 38.74C248.945 43.57 246.675 48.4 244.395 53.22M259.145 46.45C258.875 46.79 258.635 47.16 258.425 47.54C258.265 48.04 258.145 48.54 258.045 49.05C257.695 50.38 257.245 51.82 256.805 53.3H253.605C253.905 51.39 254.605 49.47 255.035 47.58C255.055 47.11 255.005 46.64 254.875 46.19C254.555 43.69 254.195 41.28 253.875 38.77C255.095 38.71 255.875 38.77 257.255 38.77C257.395 40.48 257.545 42.27 257.635 43.97C258.765 42.43 259.785 40.46 260.905 38.77C261.855 38.77 263.125 38.72 264.185 38.77C262.615 41.32 260.795 43.77 259.135 46.41M269.935 50.81C269.515 51.67 268.865 52.4 268.065 52.92C266.285 53.92 264.185 54.16 262.225 53.6C261.765 53.43 260.765 52.91 260.615 52.28C260.295 51 260.935 49.59 261.205 48.41C261.645 46.51 262.205 44.41 262.755 42.47C262.905 41.73 263.195 41.02 263.625 40.39C264.565 39.08 266.065 38.27 267.685 38.21C269.955 38 272.175 38.21 272.535 40.05C272.585 40.38 272.585 40.72 272.535 41.05C272.395 41.9 272.195 42.75 271.935 43.57C271.515 45.14 271.075 46.84 270.625 48.46C270.375 49.35 270.195 50.25 269.945 50.87M280.065 53.28C278.875 53.28 277.945 53.34 276.605 53.28C276.755 52.11 277.225 50.55 277.545 49.17C277.645 48.72 277.915 48.17 277.805 47.82C277.585 47.18 276.395 47.48 275.665 47.41C274.985 49.28 274.525 51.41 273.925 53.32C272.805 53.27 271.635 53.32 270.615 53.32C271.135 50.85 271.875 48.46 272.495 46.05C273.115 43.64 273.685 41.21 274.415 38.86H279.765C280.765 38.86 282.285 38.77 282.885 39.2C283.995 40.01 283.295 41.59 282.955 42.89C282.815 43.51 282.635 44.13 282.425 44.73C282.095 45.55 281.195 45.82 280.425 46.23C280.995 46.53 281.645 46.63 281.585 47.55C281.505 48.06 281.375 48.57 281.215 49.06C280.855 50.37 280.295 52.18 280.005 53.38M292.405 42.05C291.585 43.05 290.775 44.15 289.965 45.21C290.525 47.95 291.125 50.49 291.655 53.21C290.135 53.29 289.035 53.28 287.855 53.21C287.435 51.08 287.035 48.94 286.615 46.81C285.865 48.81 285.325 51.07 284.695 53.21H281.115C281.365 52.02 281.675 50.85 282.055 49.69C282.425 48.51 282.685 47.3 283.055 46.11C283.425 44.92 283.795 43.71 284.055 42.5C284.315 41.29 284.755 39.99 285.115 38.85C286.255 38.76 287.395 38.76 288.535 38.85C288.135 40.49 287.715 41.99 287.335 43.55C287.765 43.22 288.135 42.83 288.455 42.39C289.515 41.24 290.575 39.96 291.655 38.81C292.705 38.75 293.765 38.75 294.815 38.81C294.095 39.96 293.225 40.99 292.405 42.05" fill="#02033B"/>
</g>
</g>
<g clip-path="url(#clip5_11_2)">
<g clip-path="url(#clip6_11_2)">
<path d="M374.875 68.76H417.395V26.24H374.875V68.76ZM394.895 36.48C394.225 34.34 393.495 33.65 389.725 33.65H386.815C385.935 33.65 385.745 33.84 385.745 34.63V40.7H387.165C390.165 40.7 390.805 40.15 391.165 38.14H391.895V44.92H391.165C390.765 42.66 389.635 42.09 387.165 42.09H385.735V48.42C385.735 50.43 386.275 50.66 388.565 50.75V51.48H379.485V50.73C381.375 50.65 381.915 50.42 381.915 48.4V35.31C381.915 33.3 381.375 33.07 379.545 32.99V32.26H395.595L395.695 36.49H394.895V36.48ZM413.135 36.48C412.525 34.41 411.625 33.65 409.595 33.65H407.225V48.4C407.225 50.41 407.745 50.64 409.925 50.73V51.48H400.665V50.75C402.825 50.67 403.365 50.44 403.365 48.42V33.67H401.005C398.995 33.67 398.075 34.42 397.465 36.5H396.505L396.905 32.27H413.745L414.105 36.5H413.135V36.48Z" fill="#02033B"/>
<path d="M426.755 43.93C426.755 44.93 427.035 45.01 428.145 45.05V45.41H423.725V45.05C424.645 45.01 424.925 44.89 424.925 43.93V37.56C424.925 36.56 424.645 36.48 423.775 36.44V36.08H431.585L431.625 38.15H431.225C430.905 37.11 430.545 36.8 428.715 36.8H427.285C426.845 36.8 426.765 36.88 426.765 37.28V40.23H428.365C429.835 40.23 430.155 39.95 430.315 38.99H430.675V42.3H430.315C430.115 41.18 429.555 40.91 428.365 40.91H426.765V43.94L426.755 43.93ZM435.955 43.93C435.955 44.93 436.235 45.01 437.345 45.05V45.41H432.735V45.05C433.855 45.01 434.125 44.89 434.125 43.93V37.56C434.125 36.56 433.885 36.48 432.735 36.44V36.08H437.355V36.44C436.235 36.48 435.965 36.6 435.965 37.56V43.93H435.955ZM446.985 37.8C446.985 36.88 446.745 36.52 445.715 36.41V36.05H449.025V36.41C447.985 36.53 447.755 36.89 447.755 37.8V45.61H447.275L440.905 38.24V43.66C440.905 44.58 441.145 44.94 442.175 45.05V45.41H438.865V45.05C439.905 44.93 440.135 44.57 440.135 43.66V37.37C439.895 36.86 439.415 36.51 438.865 36.41V36.05H441.415L446.995 42.5V37.8H446.985ZM451.965 42.06L453.355 38.36L454.745 42.06H451.965V42.06ZM458.655 45.41V45.05C457.935 45.05 457.775 44.77 457.415 43.9L454.105 35.85H453.665L450.245 44.18C450.075 44.68 449.615 45.03 449.095 45.06V45.42H452.085V45.06C451.445 45.06 451.125 44.9 451.125 44.46C451.245 43.87 451.415 43.3 451.645 42.75H455.035C455.285 43.3 455.465 43.87 455.595 44.46C455.595 44.9 455.235 45.06 454.595 45.06V45.42H458.655V45.41ZM467.735 37.78C467.735 36.86 467.495 36.5 466.465 36.39V36.03H469.775V36.39C468.735 36.51 468.505 36.87 468.505 37.78V45.59H468.025L461.665 38.22V43.64C461.665 44.56 461.905 44.92 462.935 45.03V45.39H459.625V45.03C460.665 44.91 460.895 44.55 460.895 43.64V37.35C460.655 36.84 460.175 36.49 459.625 36.39V36.03H462.175L467.755 42.48V37.78H467.735V37.78ZM479.555 43.2C478.765 44.76 477.125 45.72 475.375 45.63C472.345 45.63 470.515 43.64 470.515 40.65C470.545 37.96 472.745 35.8 475.435 35.83H475.455C476.335 35.93 477.205 36.12 478.045 36.39C478.325 36.39 478.405 36.23 478.645 35.83H479.125L479.325 38.94H478.925C478.555 37.5 477.265 36.47 475.775 36.43C473.585 36.43 472.625 38.82 472.625 40.61C472.625 43.12 473.695 44.83 476.055 44.83C477.395 44.78 478.615 44.04 479.285 42.88L479.565 43.2H479.555ZM484.055 43.92C484.055 44.92 484.335 45 485.445 45.04V45.4H480.835V45.04C481.955 45 482.225 44.88 482.225 43.92V37.55C482.225 36.55 481.945 36.47 480.835 36.43V36.07H485.455V36.43C484.335 36.47 484.065 36.59 484.065 37.55V43.92H484.055ZM489.265 42.05L490.655 38.35L492.045 42.05H489.265ZM495.955 45.4V45.04C495.235 45.04 495.075 44.76 494.715 43.89L491.405 35.84H490.965L487.545 44.17C487.375 44.67 486.915 45.02 486.395 45.05V45.41H489.385V45.05C488.745 45.05 488.425 44.89 488.425 44.45C488.545 43.86 488.715 43.29 488.945 42.74H492.335C492.575 43.29 492.765 43.86 492.895 44.45C492.895 44.89 492.535 45.05 491.895 45.05V45.41H495.955V45.4ZM496.795 45.4V45.04C497.675 45 497.945 44.88 497.945 43.92V37.55C497.945 36.55 497.665 36.47 496.795 36.43V36.07H501.095V36.43C500.055 36.47 499.825 36.59 499.825 37.55V44.12C499.825 44.68 499.985 44.88 501.025 44.88C502.695 44.88 503.695 44.56 504.485 42.93H504.845L504.205 45.44H496.795V45.4V45.4ZM425.735 60.14C426.805 60.1 427.045 59.98 427.045 59.02V51.85H425.895C424.825 51.85 424.385 52.29 424.065 53.56H423.665L423.905 51.17H432.115L432.355 53.56H431.955C431.635 52.28 431.235 51.85 430.125 51.85H428.975V59.02C428.975 60.02 429.255 60.1 430.295 60.14V60.5H425.795V60.14H425.735V60.14ZM436.535 59.02C436.535 60.02 436.815 60.1 437.925 60.14V60.5H433.305V60.14C434.425 60.1 434.695 59.98 434.695 59.02V52.65C434.695 51.65 434.415 51.57 433.305 51.53V51.17H437.935V51.53C436.815 51.57 436.545 51.69 436.545 52.65V59.02H436.535V59.02ZM447.725 51.13H450.955V51.49C450.075 51.53 449.805 51.65 449.805 52.61V58.98C449.805 59.98 450.085 60.06 450.955 60.1V60.46H446.725V60.1C447.645 60.06 447.925 59.94 447.925 58.98V52.41H447.885L444.775 60.58H444.335L441.265 52.41H441.225V58.7C441.225 59.62 441.465 59.98 442.495 60.09V60.45H439.185V60.09C440.225 59.97 440.455 59.61 440.455 58.7V52.33C440.455 51.69 440.175 51.45 439.185 51.45V51.09H442.575L445.045 57.58L447.715 51.13H447.725V51.13ZM452.265 60.49V60.13C453.145 60.09 453.415 59.97 453.415 59.01V52.64C453.415 51.64 453.135 51.56 452.265 51.52V51.16H460.075L460.115 53.23H459.715C459.395 52.19 459.035 51.88 457.205 51.88H455.775C455.335 51.88 455.255 51.96 455.255 52.36V55.31H456.845C458.315 55.31 458.635 55.03 458.795 54.07H459.155V57.38H458.795C458.595 56.26 458.035 56.03 456.845 56.03H455.255V59.26C455.255 59.82 455.415 60.02 457.085 60.02C458.755 60.02 459.755 59.7 460.545 58.07H460.905L460.265 60.58H452.255V60.5H452.265V60.49ZM462.145 57.52H462.505C462.885 58.88 464.045 59.89 465.455 60.07C466.265 60.14 466.975 59.55 467.045 58.74V58.52C467.045 56.37 462.185 55.97 462.185 53.3C462.295 51.92 463.465 50.87 464.855 50.91C465.705 50.99 466.545 51.15 467.365 51.39C467.625 51.39 467.835 51.17 467.845 50.91H468.205V53.9H467.845C467.605 52.61 466.525 51.65 465.215 51.55C464.505 51.47 463.875 51.97 463.785 52.68V52.87C463.785 54.78 468.645 54.82 468.645 58.13C468.605 59.6 467.375 60.77 465.905 60.73H465.735C464.105 60.73 463.665 60.17 463.025 60.17C462.785 60.17 462.625 60.33 462.545 60.65H462.065L462.145 57.54V57.52V57.52Z" fill="#02033B"/>
</g>
</g>
<g clip-path="url(#clip7_11_2)">
<g clip-path="url(#clip8_11_2)">
<path fill-rule="evenodd" clip-rule="evenodd" d="M669.265 37.37C669.345 34.87 667.375 32.77 664.875 32.69H664.665C662.865 32.69 660.975 33.69 661.265 36.19C661.445 37.78 663.925 38.35 665.265 38.78C669.265 40.03 670.845 41.55 670.845 44.51C670.845 47.47 668.385 49.51 663.995 49.51C661.845 49.51 659.455 49.08 657.995 47.76L657.485 43.47H657.895C658.535 47.29 660.185 48.79 664.145 48.89C666.675 48.95 667.425 47.51 667.415 45.73C667.405 43.95 665.485 43.18 663.215 42.43C659.965 41.43 657.965 40.15 657.965 37.04C657.965 33.93 660.715 31.92 664.785 31.92C666.465 31.97 668.115 32.43 669.585 33.26V37.33L669.265 37.37V37.37Z" fill="#02033B"/>
<path fill-rule="evenodd" clip-rule="evenodd" d="M655.055 33.58C655.765 33.1 656.435 32.57 657.055 31.97C657.745 31.39 658.185 30.57 658.275 29.67C658.275 29.5 658.225 29.32 658.125 29.18C658.015 29.05 657.845 28.98 657.675 28.99C657.465 29.03 657.245 29.05 657.035 29.06C656.445 29.08 655.865 28.84 655.455 28.41C655.045 27.96 654.835 27.36 654.875 26.75C654.835 26.08 655.075 25.43 655.525 24.94C656.005 24.46 656.665 24.2 657.345 24.24C658.155 24.22 658.935 24.56 659.475 25.16C660.015 25.77 660.315 26.55 660.345 27.36C660.315 28.99 659.645 30.54 658.475 31.67C657.545 32.6 656.485 33.39 655.325 34.01L655.055 33.58V33.58Z" fill="#02033B"/>
<path fill-rule="evenodd" clip-rule="evenodd" d="M618.045 57.45V63.01C618.045 64.69 618.795 65.21 619.525 65.21C619.995 65.18 620.445 65.08 620.875 64.89L620.985 65.24C620.175 65.75 619.245 66.03 618.285 66.06C617.495 66.06 615.545 65.78 615.545 63.87V57.45H614.005V56.83H615.815L617.525 54.17H618.045V56.83H620.785V57.46H618.045V57.45Z" fill="#02033B"/>
<path fill-rule="evenodd" clip-rule="evenodd" d="M612.535 59.47C612.585 58.12 611.535 56.99 610.185 56.94H610.165H610.045C609.145 56.83 608.315 57.47 608.205 58.38C608.205 58.38 608.205 58.39 608.205 58.4C608.185 58.54 608.185 58.69 608.205 58.83C608.305 59.69 609.655 60 610.385 60.23C612.545 60.91 613.385 61.73 613.385 63.33C613.385 64.93 612.055 66.05 609.685 66.05C608.525 66.11 607.385 65.75 606.455 65.05L606.175 62.74H606.395C606.745 64.8 607.635 65.61 609.775 65.67C610.595 65.82 611.375 65.28 611.535 64.46C611.555 64.29 611.555 64.13 611.535 63.96C611.535 62.96 610.535 62.59 609.265 62.18C607.505 61.62 606.425 60.94 606.425 59.27C606.425 57.6 607.915 56.5 610.105 56.5C611.015 56.53 611.905 56.78 612.705 57.22V59.42L612.535 59.47V59.47Z" fill="#02033B"/>
<path fill-rule="evenodd" clip-rule="evenodd" d="M651.325 32.24C649.985 32.24 648.325 32.98 646.605 35.15V32.24L640.805 33.09V33.57C640.805 33.57 642.085 33.42 642.605 33.38V47.18C642.605 47.75 642.515 48.48 641.545 48.48H640.605V49.12H648.875V48.49H647.875C647.245 48.57 646.675 48.12 646.595 47.49C646.575 47.38 646.575 47.28 646.595 47.17V37.53C646.815 35.41 648.145 34.19 648.755 34.18C649.925 34.18 649.885 35.01 650.925 35.5C651.795 35.93 652.845 35.58 653.275 34.71C653.375 34.5 653.435 34.27 653.445 34.03C653.445 33.03 652.765 32.27 651.315 32.27" fill="#02033B"/>
<path fill-rule="evenodd" clip-rule="evenodd" d="M573.575 32.86C578.135 32.86 577.945 38.86 577.945 38.92C577.985 39.3 577.705 39.65 577.325 39.69C577.325 39.69 577.315 39.69 577.305 39.69C577.245 39.69 577.195 39.69 577.135 39.69H570.335C569.925 39.71 569.565 39.39 569.535 38.98V38.83C569.615 36.83 570.145 32.83 573.535 32.83M570.265 40.46H581.435C581.545 39.46 581.495 38.45 581.285 37.46C581.085 36.41 580.635 35.41 579.975 34.57C578.875 33.24 576.955 32.24 573.725 32.24C567.875 32.24 564.875 35.97 564.875 41.05C564.875 46.13 567.565 49.66 573.805 49.66C577.945 49.66 580.115 47.72 581.225 44.98L580.775 44.76C579.315 47.66 577.515 48.76 574.645 48.76C570.425 48.76 569.545 44.76 569.505 41.4C569.505 41.37 569.505 41.33 569.505 41.3C569.475 40.88 569.785 40.5 570.215 40.47H570.325" fill="#02033B"/>
<path fill-rule="evenodd" clip-rule="evenodd" d="M600.625 56.83C603.155 56.83 603.065 60.07 603.065 60.08C603.075 60.3 602.915 60.48 602.705 60.51H598.875C598.645 60.52 598.445 60.34 598.425 60.11V60.04C598.425 58.93 598.755 56.85 600.655 56.84M598.845 61.06H605.015C605.055 60.51 605.015 59.96 604.875 59.42C604.765 58.84 604.525 58.29 604.155 57.82C603.275 56.87 601.995 56.37 600.705 56.49C598.195 56.28 595.995 58.15 595.785 60.66C595.785 60.66 595.785 60.66 595.785 60.67C595.765 60.91 595.765 61.16 595.785 61.4C595.785 64.33 597.265 66.17 600.725 66.17C602.545 66.35 604.255 65.27 604.875 63.55L604.555 63.43C604.025 64.83 602.655 65.73 601.155 65.65C598.825 65.65 598.405 63.45 598.385 61.57C598.365 61.33 598.545 61.12 598.785 61.1" fill="#02033B"/>
<path fill-rule="evenodd" clip-rule="evenodd" d="M631.435 32.85C635.985 32.85 635.805 38.9 635.805 38.92C635.835 39.31 635.545 39.65 635.155 39.69C635.095 39.69 635.045 39.69 634.985 39.69H628.185C627.765 39.71 627.415 39.39 627.385 38.97V38.87C627.475 36.87 628.005 32.87 631.385 32.87M628.105 40.5H639.285C639.395 39.5 639.335 38.49 639.125 37.5C638.955 36.46 638.525 35.47 637.875 34.63C636.715 33.24 634.815 32.24 631.585 32.24C625.745 32.24 622.705 36.02 622.705 41.1C622.705 46.18 625.385 49.71 631.625 49.71C635.775 49.71 637.945 47.77 639.055 45.03L638.615 44.81C637.145 47.71 635.345 48.81 632.475 48.81C628.255 48.81 627.375 44.81 627.335 41.45C627.335 41.42 627.335 41.38 627.335 41.35C627.295 40.93 627.605 40.56 628.025 40.52H628.045H628.155" fill="#02033B"/>
<path fill-rule="evenodd" clip-rule="evenodd" d="M550.295 36.36H548.595C548.105 36.42 547.655 36.06 547.595 35.57C547.595 35.57 547.595 35.57 547.595 35.56V26.45C548.295 26.34 549.015 26.3 549.725 26.32C552.385 26.32 555.435 27.17 555.435 31.74C555.435 35.14 553.635 36.36 550.275 36.36M554.435 36.94C557.575 36.45 559.805 34.69 559.785 31.42C559.785 28.32 558.065 25.67 551.785 25.67H540.875V26.24H542.065C542.685 26.21 543.215 26.68 543.245 27.3C543.245 27.38 543.245 27.45 543.245 27.53V47.24C543.345 47.9 542.895 48.51 542.245 48.62H540.875V49.16H550.095V48.62H548.985C548.315 48.7 547.705 48.23 547.615 47.56C547.595 47.45 547.595 47.33 547.615 47.22V38.22C547.615 38.22 547.615 38.19 547.615 38.17C547.615 37.59 547.845 37.17 548.615 37.17H549.875C551.875 37.17 555.335 38.47 556.355 43.98C557.725 51.43 564.155 53.04 570.475 52.77V52.43C557.785 51.54 564.305 37.83 554.475 36.93" fill="#02033B"/>
<path fill-rule="evenodd" clip-rule="evenodd" d="M582.935 55.66C583.585 55.74 584.185 55.28 584.265 54.63C584.265 54.63 584.265 54.62 584.265 54.61V54.5C584.295 53.83 583.775 53.27 583.105 53.24C583.095 53.24 583.085 53.24 583.075 53.24H582.935C582.265 53.19 581.665 53.69 581.605 54.36V54.46C581.605 55.12 582.135 55.67 582.795 55.67C582.825 55.67 582.845 55.67 582.875 55.67H582.985" fill="#02033B"/>
<path fill-rule="evenodd" clip-rule="evenodd" d="M584.605 65.45C584.345 65.44 584.135 65.22 584.145 64.95C584.145 64.95 584.145 64.95 584.145 64.94V56.88L580.615 57.48L580.965 57.87L581.575 57.81V64.92C581.605 65.18 581.415 65.42 581.155 65.45H580.515V65.88H585.435V65.45H584.615H584.605Z" fill="#02033B"/>
<path fill-rule="evenodd" clip-rule="evenodd" d="M594.565 45.11C594.565 47.39 592.155 48.25 590.965 48.11C588.875 47.89 588.045 46.24 588.045 44.34C587.885 42.87 588.835 41.51 590.275 41.17C591.705 40.62 593.735 39.99 594.555 39.53V45.11H594.565ZM600.885 47.91C600.535 48.24 600.085 48.45 599.605 48.49C599.135 48.53 598.715 48.2 598.655 47.73C598.605 46.85 598.585 37 598.585 37C598.585 35 597.315 32.23 591.685 32.23C587.415 32.23 584.535 34.23 584.405 36.16C584.265 37.04 584.875 37.87 585.755 38.01C585.865 38.02 585.965 38.02 586.075 38.01H586.315C586.395 38 586.465 37.98 586.545 37.95L586.705 37.9C587.335 37.56 587.765 36.95 587.885 36.24C588.265 33.92 589.105 32.71 591.575 32.79C594.465 32.87 594.575 34.43 594.575 37.07V37.43C594.575 37.74 594.385 38.87 592.445 39.66C590.705 40.05 588.955 40.36 587.185 40.57C585.115 40.89 583.615 42.73 583.735 44.82C583.735 47.36 585.655 49.47 589.135 49.57C591.895 49.65 593.465 48.15 594.575 47.42C594.895 48.55 595.845 49.4 597.005 49.58C598.505 49.79 600.025 49.33 601.155 48.33L600.885 47.91V47.91Z" fill="#02033B"/>
<path fill-rule="evenodd" clip-rule="evenodd" d="M615.285 44.16C615.335 44.77 615.245 45.38 615.015 45.94C614.305 47.59 612.785 48.06 611.015 48.06C607.695 48.06 606.775 44.5 606.775 40.61C606.775 36.29 607.775 33.29 611.325 33.29C612.885 33.22 614.345 34.09 615.015 35.51C615.275 36.2 615.375 36.93 615.315 37.66L615.285 44.16V44.16ZM620.705 48.41C619.625 48.41 619.285 47.88 619.285 46.98V24.38L612.625 25.1V25.71L615.285 25.55V34.55C614.405 33.17 612.915 32.29 611.285 32.2C608.795 32.03 606.335 32.88 604.485 34.56C602.705 36.28 601.755 38.69 601.875 41.16C601.875 46.05 604.455 49.47 609.455 49.47C611.605 49.47 613.685 48.68 615.285 47.24V49.04H621.285V48.41H620.705V48.41Z" fill="#02033B"/>
<path fill-rule="evenodd" clip-rule="evenodd" d="M575.875 63.12C576.015 64.22 575.245 65.22 574.155 65.36C573.915 65.39 573.675 65.38 573.445 65.33C571.565 65.33 571.045 63.33 571.045 61.11C571.045 58.67 571.605 56.97 573.615 56.97C574.515 56.91 575.365 57.42 575.745 58.24C575.875 58.62 575.925 59.04 575.875 59.44V63.12V63.12ZM578.945 65.53C578.335 65.53 578.135 65.23 578.135 64.72V51.92L574.365 52.32V52.67L575.875 52.58V57.65C575.375 56.87 574.535 56.37 573.615 56.32C572.205 56.23 570.815 56.71 569.765 57.66C568.745 58.64 568.205 60.01 568.275 61.42C568.275 64.19 569.745 66.12 572.575 66.12C573.795 66.12 574.975 65.66 575.875 64.83V65.83H579.255V65.47H578.945V65.53V65.53Z" fill="#02033B"/>
<path fill-rule="evenodd" clip-rule="evenodd" d="M590.475 62.24C589.365 62.24 588.735 61.34 588.665 59.74C588.595 58.14 589.505 57.29 590.395 57.29C591.205 57.29 592.125 57.84 592.095 59.74C592.095 61.28 591.605 62.23 590.455 62.24M590.575 65.92C592.435 65.92 593.455 66.34 593.395 67.71C593.405 68.98 592.385 70.02 591.115 70.04C591.015 70.04 590.925 70.04 590.825 70.04C589.145 70.04 588.115 69.15 588.075 67.64C588.055 67.15 588.275 66.67 588.675 66.38C589.235 66 589.925 65.85 590.595 65.94M593.595 56.48C594.235 56.48 594.215 56.94 594.785 57.21C595.265 57.43 595.835 57.24 596.085 56.78C596.145 56.66 596.175 56.53 596.185 56.39C596.185 55.83 595.805 55.39 595.005 55.39C593.955 55.49 593.005 56.07 592.435 56.96C591.835 56.74 591.205 56.63 590.565 56.62C587.625 56.62 586.415 57.79 586.435 59.72C586.425 61.11 587.415 62.3 588.775 62.55C587.675 62.7 586.775 63.34 586.775 64.1C586.775 65.19 588.215 65.69 589.045 65.75C588.245 65.83 586.485 65.87 586.365 67.75C586.245 69.63 588.235 70.66 590.455 70.68C594.095 70.68 595.515 69.08 595.515 66.98C595.515 64.88 593.765 64.23 591.785 64.23H590.015C588.705 64.23 588.305 63.79 588.305 63.47C588.305 62.94 588.895 62.72 589.145 62.64C589.395 62.56 590.145 62.7 590.365 62.7C592.155 62.7 594.365 61.97 594.365 59.7C594.355 59.27 594.255 58.84 594.075 58.45L593.985 58.28C593.915 58.17 593.835 58.07 593.755 57.97L593.645 57.85L593.295 57.51C593.125 57.39 592.955 57.27 592.775 57.16C592.935 56.82 593.235 56.57 593.595 56.47" fill="#02033B"/>
</g>
</g>
<g clip-path="url(#clip9_11_2)">
<g clip-path="url(#clip10_11_2)">
<path fill-rule="evenodd" clip-rule="evenodd" d="M820.545 52.37C818.245 54.33 815.305 55.4 812.285 55.37C806.005 55.37 801.935 50.92 801.935 44.03C801.935 40.09 802.755 37.48 804.675 35.34C806.395 33.36 808.935 32.27 811.555 32.39C813.885 32.32 816.155 33.17 817.875 34.74C819.875 36.79 820.785 39.74 820.785 44.32V45.65H808.145V45.82C808.145 49.2 809.805 51.13 812.765 51.13C814.815 51.09 816.795 50.32 818.325 48.95L820.545 52.37V52.37ZM814.875 41.46V41.22C814.995 40.08 814.755 38.93 814.195 37.93C813.655 37.07 812.685 36.58 811.675 36.65C809.495 36.65 808.255 38.36 808.255 41.4V41.48L814.875 41.46V41.46Z" fill="#02033B"/>
<path fill-rule="evenodd" clip-rule="evenodd" d="M835.295 36.84H831.615V47.84C831.615 50.62 832.125 51.35 834.095 51.35C834.795 51.31 835.485 51.16 836.145 50.93L836.875 54.35C835.405 55 833.815 55.34 832.205 55.35C829.305 55.35 826.985 54.07 826.305 52.15C825.945 51.06 825.815 49.9 825.925 48.76V36.83H823.745V32.9H825.925C825.885 31.17 825.955 29.44 826.135 27.72L831.955 26.27C831.735 28.47 831.615 30.69 831.615 32.9H836.755L835.295 36.84V36.84Z" fill="#02033B"/>
<path fill-rule="evenodd" clip-rule="evenodd" d="M793.245 25.07L793.375 37.22C793.375 39.22 793.625 43.08 793.845 45.4C792.985 42.51 791.895 39.68 790.595 36.96L784.875 25.06H778.265V38.57L763.185 6.22L706.875 32.48L733.125 88.79L789.435 62.53L783.985 50.85L783.875 42.1C783.875 39.62 783.785 36.1 783.575 33.67C784.135 35.51 785.935 39.67 787.575 43.43L792.675 54.81H798.915V25.07H793.245V25.07ZM760.955 54.5H756.155V48.1H759.495C764.005 48.1 767.855 45.63 767.855 39.97C767.855 34.77 764.425 31.84 759.575 31.84H755.345V46.35L749.875 54.5H718.475L733.875 31.85H719.795L724.075 25.45H747.305L732.005 48.1H747.795V25.45H760.955C768.975 25.16 775.715 31.42 776.005 39.44C776.295 47.46 770.035 54.2 762.015 54.49C761.875 54.49 761.725 54.49 761.585 54.49H760.955" fill="#02033B"/>
</g>
</g>
<g clip-path="url(#clip11_11_2)">
<g clip-path="url(#clip12_11_2)">
<path d="M918.565 41.445V38.445H905.975V41.445H910.355V53.445H905.975V56.445H918.565V53.445H913.775V41.445H918.565Z" fill="#02033B"/>
<path d="M939.465 41.565H934.465V46.505C934.465 46.505 937.175 46.425 939.405 46.425C941.635 46.425 942.195 45.945 942.195 43.715C942.195 41.165 939.485 41.555 939.485 41.555" fill="#02033B"/>
<path d="M924.975 60.765H950.975V34.235H924.975V60.765V60.765ZM945.765 52.075V56.235H942.175V52.335C942.175 52.335 942.175 49.335 940.105 49.335C938.035 49.335 934.445 49.415 934.445 49.415V56.345H930.945V38.455H941.305C943.635 38.325 945.635 40.105 945.765 42.445C945.765 42.445 945.765 42.445 945.765 42.455C945.785 42.665 945.785 42.875 945.765 43.085C945.765 47.945 943.065 48.185 943.065 48.185C943.065 48.185 945.765 48.345 945.765 52.085" fill="#02033B"/>
<path d="M955.795 38.455V41.455H958.265V53.455H955.795V56.405H971.015V50.565H968.015V53.435H961.535V48.575H966.315V45.625H961.535V41.405H967.745V44.235H971.015V38.455H955.795V38.455Z" fill="#02033B"/>
<path d="M991.725 41.485H986.305V53.485H991.965C994.675 53.485 994.755 49.975 994.755 49.975V45.305C994.755 41.245 991.755 41.485 991.755 41.485" fill="#02033B"/>
<path d="M976.875 60.765H1002.88V34.235H976.875V60.765ZM992.175 56.535C985.645 56.535 982.695 56.615 982.695 56.615V38.535H990.415C990.415 38.535 998.415 37.655 998.415 44.825V49.825C998.415 49.825 998.735 56.515 992.205 56.515" fill="#02033B"/>
<path d="M872.875 60.765H898.925V34.235H872.875V60.765ZM893.585 56.375H889.125L886.255 43.375L883.145 56.455H878.765L875.105 38.535H878.695L881.155 52.155L884.345 38.535L888.245 38.615L891.435 52.395L893.875 38.535H897.295L893.585 56.375V56.375Z" fill="#02033B"/>
</g>
</g>
</g>
<defs>
<clipPath id="clip0_11_2">
<rect width="1045.75" height="95" fill="white"/>
</clipPath>
<clipPath id="clip1_11_2">
<rect width="130" height="95" fill="white" transform="translate(42.875)"/>
</clipPath>
<clipPath id="clip2_11_2">
<rect width="129.428" height="95" fill="white" transform="translate(43.1611)"/>
</clipPath>
<clipPath id="clip3_11_2">
<rect width="130" height="95" fill="white" transform="translate(208.875)"/>
</clipPath>
<clipPath id="clip4_11_2">
<rect width="130" height="19.62" fill="white" transform="translate(208.875 37.69)"/>
</clipPath>
<clipPath id="clip5_11_2">
<rect width="130" height="95" fill="white" transform="translate(374.875)"/>
</clipPath>
<clipPath id="clip6_11_2">
<rect width="130" height="42.52" fill="white" transform="translate(374.875 26.24)"/>
</clipPath>
<clipPath id="clip7_11_2">
<rect width="130" height="95" fill="white" transform="translate(540.875)"/>
</clipPath>
<clipPath id="clip8_11_2">
<rect width="130" height="46.52" fill="white" transform="translate(540.875 24.24)"/>
</clipPath>
<clipPath id="clip9_11_2">
<rect width="130" height="95" fill="white" transform="translate(706.875)"/>
</clipPath>
<clipPath id="clip10_11_2">
<rect width="130" height="82.56" fill="white" transform="translate(706.875 6.22)"/>
</clipPath>
<clipPath id="clip11_11_2">
<rect width="130" height="95" fill="white" transform="translate(872.875)"/>
</clipPath>
<clipPath id="clip12_11_2">
<rect width="130" height="26.53" fill="white" transform="translate(872.875 34.235)"/>
</clipPath>
</defs>
</svg>
