<svg width="20" height="14" viewBox="0 0 20 14" fill="none" xmlns="http://www.w3.org/2000/svg">
<g clip-path="url(#clip0_13_2)">
<path d="M12.75 0.510007C12.5808 0.68207 12.486 0.913709 12.486 1.15501C12.486 1.3963 12.5808 1.62794 12.75 1.80001L17 6.08001H0.900002C0.771807 6.06659 0.642223 6.08025 0.519648 6.12012C0.397073 6.15999 0.284244 6.22517 0.188474 6.31144C0.092704 6.39771 0.01613 6.50314 -0.0362844 6.6209C-0.0886987 6.73865 -0.115784 6.86611 -0.115784 6.99501C-0.115784 7.1239 -0.0886987 7.25136 -0.0362844 7.36912C0.01613 7.48687 0.092704 7.5923 0.188474 7.67857C0.284244 7.76484 0.397073 7.83002 0.519648 7.86989C0.642223 7.90976 0.771807 7.92343 0.900002 7.91001H17L12.74 12.25C12.5732 12.4233 12.48 12.6545 12.48 12.895C12.48 13.1355 12.5732 13.3667 12.74 13.54C12.8227 13.6229 12.9209 13.6886 13.029 13.7334C13.1371 13.7783 13.253 13.8014 13.37 13.8014C13.487 13.8014 13.6029 13.7783 13.711 13.7334C13.8191 13.6886 13.9173 13.6229 14 13.54V13.54L19.74 7.65001C19.818 7.56379 19.8821 7.46595 19.93 7.36001C19.9781 7.2497 20.002 7.13034 20 7.01001C20.001 6.89146 19.9785 6.7739 19.9339 6.66407C19.8892 6.55424 19.8234 6.4543 19.74 6.37001L14 0.530007C13.8414 0.367681 13.6267 0.272096 13.3999 0.262802C13.1732 0.253507 12.9514 0.331206 12.78 0.480007L12.75 0.510007Z" fill="black"/>
</g>
<defs>
<clipPath id="clip0_13_2">
<rect width="20" height="13.5" fill="white" transform="translate(0 0.25)"/>
</clipPath>
</defs>
</svg>
