<svg width="135" height="26" viewBox="0 0 135 26" fill="none" xmlns="http://www.w3.org/2000/svg">
<g clip-path="url(#clip0_13_6)">
<path d="M10.25 17.6444L16.58 21.4644L14.9 14.2544L20.49 9.41437L13.12 8.77437L10.25 1.98438L7.37 8.78438L0 9.41437L5.59 14.2544L3.91 21.4644L10.25 17.6444Z" fill="#FFC247"/>
</g>
<g clip-path="url(#clip1_13_6)">
<path d="M37.8438 17.6444L44.1737 21.4644L42.4937 14.2544L48.0837 9.41437L40.7137 8.77437L37.8438 1.98438L34.9637 8.78438L27.5938 9.41437L33.1838 14.2544L31.5038 21.4644L37.8438 17.6444Z" fill="#FFC247"/>
</g>
<g clip-path="url(#clip2_13_6)">
<path d="M65.4375 17.6444L71.7675 21.4644L70.0875 14.2544L75.6775 9.41437L68.3075 8.77437L65.4375 1.98438L62.5575 8.78438L55.1875 9.41437L60.7775 14.2544L59.0975 21.4644L65.4375 17.6444Z" fill="#FFC247"/>
</g>
<g clip-path="url(#clip3_13_6)">
<path d="M93.0312 17.6444L99.3612 21.4644L97.6812 14.2544L103.271 9.41437L95.9012 8.77437L93.0312 1.98438L90.1512 8.78438L82.7812 9.41437L88.3713 14.2544L86.6913 21.4644L93.0312 17.6444Z" fill="#FFC247"/>
</g>
<g clip-path="url(#clip4_13_6)">
<path d="M120.625 17.6444L126.955 21.4644L125.275 14.2544L130.865 9.41437L123.495 8.77437L120.625 1.98438L117.745 8.78438L110.375 9.41437L115.965 14.2544L114.285 21.4644L120.625 17.6444Z" fill="#FFC247"/>
</g>
<defs>
<clipPath id="clip0_13_6">
<rect width="24" height="24" fill="white" transform="translate(0 1.98438)"/>
</clipPath>
<clipPath id="clip1_13_6">
<rect width="24" height="24" fill="white" transform="translate(27.5938 1.98438)"/>
</clipPath>
<clipPath id="clip2_13_6">
<rect width="24" height="24" fill="white" transform="translate(55.1875 1.98438)"/>
</clipPath>
<clipPath id="clip3_13_6">
<rect width="24" height="24" fill="white" transform="translate(82.7812 1.98438)"/>
</clipPath>
<clipPath id="clip4_13_6">
<rect width="24" height="24" fill="white" transform="translate(110.375 1.98438)"/>
</clipPath>
</defs>
</svg>
